<?xml version="1.0" encoding="utf-8"?>
 <!DOCTYPE svg PUBLIC "-//W3C//DTD SVG 20010904//EN" "http://www.w3.org/TR/2001/REC-SVG-20010904/DTD/svg10.dtd">
<svg xmlns="http://www.w3.org/2000/svg" xmlns:xlink="http://www.w3.org/1999/xlink" viewBox="-5.8 -5.8 40.6 40.6" class="w-full bg-white" url="bc1qpfwu98ay9mergfkcelwhw7xu6sdkhk3klnnvms" correct_level="medium" content_stroke_width="0.64" content_x_stroke_width="0.77" positioning_stroke_width="0.78" positioning_point_type="dsj"><rect width="0.64" height="0.64" fill="#F6B506" x="11.18" y="0.18"></rect><rect width="0.64" height="0.64" fill="#F6B506" x="18.18" y="0.18"></rect><rect width="0.64" height="0.64" fill="#F6B506" x="20.18" y="0.18"></rect><rect width="0.64" height="0.64" fill="#F6B506" x="10.18" y="1.18"></rect><rect width="0.64" height="0.64" fill="#F6B506" x="13.18" y="1.18"></rect><rect width="0.64" height="0.64" fill="#F6B506" x="15.18" y="1.18"></rect><rect width="0.64" height="0.64" fill="#F6B506" x="17.18" y="1.18"></rect><rect width="0.64" height="0.64" fill="#F6B506" x="19.18" y="2.18"></rect><rect fill="#0B2D97" x="2.11" y="2.11" width="2.7800000000000002" height="2.7800000000000002"></rect><rect fill="#0B2D97" x="0.10999999999999999" y="2.11" width="0.78" height="2.7800000000000002"></rect><rect width="0.78" height="2.7800000000000002" fill="#0B2D97" x="6.11" y="2.11"></rect><rect width="2.7800000000000002" height="0.78" fill="#0B2D97" x="2.11" y="0.10999999999999999"></rect><rect width="2.7800000000000002" height="0.78" fill="#0B2D97" x="2.11" y="6.11"></rect><rect width="0.64" height="0.64" fill="#F6B506" x="8.18" y="3.18"></rect><rect width="0.64" height="0.64" fill="#F6B506" x="20.18" y="3.18"></rect><rect width="2.7800000000000002" height="2.7800000000000002" fill="#0B2D97" x="24.11" y="2.11"></rect><rect width="0.78" height="2.7800000000000002" fill="#0B2D97" x="22.11" y="2.11"></rect><rect width="0.78" height="2.7800000000000002" fill="#0B2D97" x="28.11" y="2.11"></rect><rect width="2.7800000000000002" height="0.78" fill="#0B2D97" x="24.11" y="0.10999999999999999"></rect><rect width="2.7800000000000002" height="0.78" fill="#0B2D97" x="24.11" y="6.11"></rect><rect width="0.64" height="0.64" fill="#F6B506" x="19.18" y="4.18"></rect><rect width="0.64" height="0.64" fill="#F6B506" x="8.18" y="5.18"></rect><rect width="0.64" height="0.64" fill="#F6B506" x="10.18" y="5.18"></rect><rect width="0.64" height="0.64" fill="#F6B506" x="8.18" y="6.18"></rect><rect width="0.64" height="0.64" fill="#F6B506" x="10.18" y="6.18"></rect><rect width="0.64" height="0.64" fill="#F6B506" x="14.18" y="6.18"></rect><rect width="0.64" height="0.64" fill="#F6B506" x="16.18" y="6.18"></rect><rect width="0.64" height="0.64" fill="#F6B506" x="18.18" y="6.18"></rect><rect width="0.64" height="0.64" fill="#F6B506" x="20.18" y="6.18"></rect><rect width="0.64" height="0.64" fill="#F6B506" x="11.18" y="7.18"></rect><rect width="0.64" height="0.64" fill="#F6B506" x="9.18" y="8.18"></rect><rect width="0.64" height="0.64" fill="#F6B506" x="14.18" y="8.18"></rect><rect width="0.64" height="0.64" fill="#F6B506" x="19.18" y="8.18"></rect><rect width="0.64" height="0.64" fill="#F6B506" x="21.18" y="8.18"></rect><rect width="0.64" height="0.64" fill="#F6B506" x="23.18" y="8.18"></rect><rect width="0.64" height="0.64" fill="#F6B506" x="20.18" y="9.18"></rect><rect width="0.64" height="0.64" fill="#F6B506" x="22.18" y="9.18"></rect><rect width="0.64" height="0.64" fill="#F6B506" x="1.18" y="10.18"></rect><rect width="0.64" height="0.64" fill="#F6B506" x="3.18" y="10.18"></rect><rect width="0.64" height="0.64" fill="#F6B506" x="12.18" y="10.18"></rect><rect width="0.64" height="0.64" fill="#F6B506" x="27.18" y="10.18"></rect><rect width="0.64" height="0.64" fill="#F6B506" x="2.18" y="11.18"></rect><rect width="0.64" height="0.64" fill="#F6B506" x="12.18" y="11.18"></rect><rect width="0.64" height="0.64" fill="#F6B506" x="19.18" y="11.18"></rect><rect width="0.64" height="0.64" fill="#F6B506" x="21.18" y="11.18"></rect><rect width="0.64" height="0.64" fill="#F6B506" x="1.18" y="12.18"></rect><rect width="0.64" height="0.64" fill="#F6B506" x="15.18" y="12.18"></rect><rect width="0.64" height="0.64" fill="#F6B506" x="23.18" y="12.18"></rect><rect width="0.64" height="0.64" fill="#F6B506" x="8.18" y="13.18"></rect><rect width="0.64" height="0.64" fill="#F6B506" x="12.18" y="13.18"></rect><rect width="0.64" height="0.64" fill="#F6B506" x="23.18" y="13.18"></rect><rect width="0.64" height="0.64" fill="#F6B506" x="28.18" y="13.18"></rect><rect width="0.64" height="0.64" fill="#F6B506" x="1.18" y="14.18"></rect><rect width="0.64" height="0.64" fill="#F6B506" x="6.18" y="14.18"></rect><rect width="0.64" height="0.64" fill="#F6B506" x="8.18" y="14.18"></rect><rect width="0.64" height="0.64" fill="#F6B506" x="17.18" y="14.18"></rect><rect width="0.64" height="0.64" fill="#F6B506" x="19.18" y="14.18"></rect><rect width="0.64" height="0.64" fill="#F6B506" x="22.18" y="14.18"></rect><rect width="0.64" height="0.64" fill="#F6B506" x="24.18" y="14.18"></rect><rect width="0.64" height="0.64" fill="#F6B506" x="28.18" y="14.18"></rect><rect width="0.64" height="0.64" fill="#F6B506" x="20.18" y="15.18"></rect><rect width="0.64" height="0.64" fill="#F6B506" x="23.18" y="15.18"></rect><rect width="0.64" height="0.64" fill="#F6B506" x="2.18" y="16.18"></rect><rect width="0.64" height="0.64" fill="#F6B506" x="10.18" y="16.18"></rect><rect width="0.64" height="0.64" fill="#F6B506" x="14.18" y="16.18"></rect><rect width="0.64" height="0.64" fill="#F6B506" x="28.18" y="16.18"></rect><rect width="0.64" height="0.64" fill="#F6B506" x="2.18" y="17.18"></rect><rect width="0.64" height="0.64" fill="#F6B506" x="4.18" y="17.18"></rect><rect width="0.64" height="0.64" fill="#F6B506" x="7.18" y="17.18"></rect><rect width="0.64" height="0.64" fill="#F6B506" x="19.18" y="17.18"></rect><rect width="0.64" height="0.64" fill="#F6B506" x="1.18" y="18.18"></rect><rect width="0.64" height="0.64" fill="#F6B506" x="6.18" y="18.18"></rect><rect width="0.64" height="0.64" fill="#F6B506" x="15.18" y="18.18"></rect><rect width="0.64" height="0.64" fill="#F6B506" x="18.18" y="18.18"></rect><rect width="0.64" height="0.64" fill="#F6B506" x="23.18" y="18.18"></rect><rect width="0.64" height="0.64" fill="#F6B506" x="0.18" y="19.18"></rect><rect width="0.64" height="0.64" fill="#F6B506" x="5.18" y="19.18"></rect><rect width="0.64" height="0.64" fill="#F6B506" x="19.18" y="19.18"></rect><rect width="0.64" height="0.64" fill="#F6B506" x="2.18" y="20.18"></rect><rect width="0.64" height="0.64" fill="#F6B506" x="14.18" y="20.18"></rect><rect width="0.64" height="0.64" fill="#F6B506" x="16.18" y="20.18"></rect><rect width="0.64" height="0.64" fill="#F6B506" x="8.18" y="21.18"></rect><rect width="0.64" height="0.64" fill="#F6B506" x="14.18" y="21.18"></rect><rect width="0.64" height="0.64" fill="#F6B506" x="27.18" y="21.18"></rect><rect width="0.64" height="0.64" fill="#F6B506" x="17.18" y="22.18"></rect><rect width="0.64" height="0.64" fill="#F6B506" x="22.18" y="22.18"></rect><rect width="0.64" height="0.64" fill="#F6B506" x="24.18" y="22.18"></rect><rect width="0.64" height="0.64" fill="#F6B506" x="28.18" y="22.18"></rect><rect width="0.64" height="0.64" fill="#F6B506" x="8.18" y="23.18"></rect><rect fill="#F6B506" x="15.18" y="23.18" width="0.64" height="0.64"></rect><rect fill="#F6B506" x="17.18" y="23.18" width="0.64" height="0.64"></rect><rect width="0.64" height="0.64" fill="#F6B506" x="14.18" y="24.18"></rect><rect width="0.64" height="0.64" fill="#F6B506" x="18.18" y="24.18"></rect><rect width="2.7800000000000002" height="2.7800000000000002" fill="#0B2D97" x="2.11" y="24.11"></rect><rect width="0.78" height="2.7800000000000002" fill="#0B2D97" x="0.10999999999999999" y="24.11"></rect><rect width="0.78" height="2.7800000000000002" fill="#0B2D97" x="6.11" y="24.11"></rect><rect width="2.7800000000000002" height="0.78" fill="#0B2D97" x="2.11" y="22.11"></rect><rect width="2.7800000000000002" height="0.78" fill="#0B2D97" x="2.11" y="28.11"></rect><rect width="0.64" height="0.64" fill="#F6B506" x="9.18" y="25.18"></rect><rect width="0.64" height="0.64" fill="#F6B506" x="12.18" y="25.18"></rect><rect width="0.64" height="0.64" fill="#F6B506" x="16.18" y="25.18"></rect><rect width="0.64" height="0.64" fill="#F6B506" x="10.18" y="27.18"></rect><rect width="0.64" height="0.64" fill="#F6B506" x="25.18" y="27.18"></rect><rect width="0.64" height="0.64" fill="#F6B506" x="9.18" y="28.18"></rect><rect width="0.64" height="0.64" fill="#F6B506" x="12.18" y="28.18"></rect><rect width="0.64" height="0.64" fill="#F6B506" x="18.18" y="28.18"></rect><rect width="0.64" height="0.64" fill="#F6B506" x="26.18" y="28.18"></rect><line x1="12.27223611075682" y1="3.272236110756821" x2="13.72776388924318" y2="4.727763889243179" fill="none" stroke="#0B2D97" stroke-width="0.77"></line><line x1="13.72776388924318" y1="3.272236110756821" x2="12.27223611075682" y2="4.727763889243179" fill="none" stroke="#0B2D97" stroke-width="0.77"></line><line x1="17.272236110756822" y1="8.27223611075682" x2="18.727763889243178" y2="9.72776388924318" fill="none" stroke="#0B2D97" stroke-width="0.77"></line><line x1="18.727763889243178" y1="8.27223611075682" x2="17.272236110756822" y2="9.72776388924318" fill="none" stroke="#0B2D97" stroke-width="0.77"></line><line x1="22.272236110756822" y1="10.27223611075682" x2="24.727763889243178" y2="12.72776388924318" fill="none" stroke="#0B2D97" stroke-width="0.77"></line><line x1="24.727763889243178" y1="10.27223611075682" x2="22.272236110756822" y2="12.72776388924318" fill="none" stroke="#0B2D97" stroke-width="0.77"></line><line x1="9.27223611075682" y1="11.27223611075682" x2="10.72776388924318" y2="12.72776388924318" fill="none" stroke="#0B2D97" stroke-width="0.77"></line><line x1="10.72776388924318" y1="11.27223611075682" x2="9.27223611075682" y2="12.72776388924318" fill="none" stroke="#0B2D97" stroke-width="0.77"></line><line x1="20.272236110756822" y1="13.27223611075682" x2="21.727763889243178" y2="14.72776388924318" fill="none" stroke="#0B2D97" stroke-width="0.77"></line><line x1="21.727763889243178" y1="13.27223611075682" x2="20.272236110756822" y2="14.72776388924318" fill="none" stroke="#0B2D97" stroke-width="0.77"></line><line x1="4.272236110756821" y1="15.27223611075682" x2="5.727763889243179" y2="16.727763889243178" fill="none" stroke="#0B2D97" stroke-width="0.77"></line><line x1="5.727763889243179" y1="15.27223611075682" x2="4.272236110756821" y2="16.727763889243178" fill="none" stroke="#0B2D97" stroke-width="0.77"></line><line x1="24.272236110756822" y1="17.272236110756822" x2="25.727763889243178" y2="18.727763889243178" fill="none" stroke="#0B2D97" stroke-width="0.77"></line><line x1="25.727763889243178" y1="17.272236110756822" x2="24.272236110756822" y2="18.727763889243178" fill="none" stroke="#0B2D97" stroke-width="0.77"></line><line x1="9.27223611075682" y1="18.272236110756822" x2="11.72776388924318" y2="20.727763889243178" fill="none" stroke="#0B2D97" stroke-width="0.77"></line><line x1="11.72776388924318" y1="18.272236110756822" x2="9.27223611075682" y2="20.727763889243178" fill="none" stroke="#0B2D97" stroke-width="0.77"></line><line x1="24.272236110756822" y1="21.272236110756822" x2="26.727763889243178" y2="23.727763889243178" fill="none" stroke="#0B2D97" stroke-width="0.77"></line><line x1="26.727763889243178" y1="21.272236110756822" x2="24.272236110756822" y2="23.727763889243178" fill="none" stroke="#0B2D97" stroke-width="0.77"></line><line x1="9.27223611075682" y1="22.272236110756822" x2="10.72776388924318" y2="23.727763889243178" fill="none" stroke="#0B2D97" stroke-width="0.77"></line><line x1="10.72776388924318" y1="22.272236110756822" x2="9.27223611075682" y2="23.727763889243178" fill="none" stroke="#0B2D97" stroke-width="0.77"></line><rect width="1.6400000000000001" height="0.64" fill="#F6B506" x="8.18" y="0.18"></rect><rect width="1.6400000000000001" height="0.64" fill="#F6B506" x="14.18" y="0.18"></rect><rect width="0.64" height="2.64" fill="#E02020" x="9.18" y="2.18"></rect><rect width="0.64" height="0.64" fill="#E02020" x="9.18" y="5.18"></rect><rect width="1.6400000000000001" height="0.64" fill="#F6B506" x="10.18" y="2.18"></rect><rect width="3.64" height="0.64" fill="#F6B506" x="15.18" y="3.18"></rect><rect width="1.6400000000000001" height="0.64" fill="#F6B506" x="14.18" y="5.18"></rect><rect width="1.6400000000000001" height="0.64" fill="#F6B506" x="17.18" y="5.18"></rect><rect width="0.64" height="1.6400000000000001" fill="#E02020" x="12.18" y="6.18"></rect><rect width="0.64" height="0.64" fill="#E02020" x="12.18" y="8.18"></rect><rect width="1.6400000000000001" height="0.64" fill="#F6B506" x="19.18" y="7.18"></rect><rect width="1.6400000000000001" height="0.64" fill="#F6B506" x="5.18" y="8.18"></rect><rect width="0.64" height="2.64" fill="#E02020" x="8.18" y="8.18"></rect><rect width="0.64" height="0.64" fill="#E02020" x="8.18" y="11.18"></rect><rect width="0.64" height="1.6400000000000001" fill="#E02020" x="13.18" y="8.18"></rect><rect width="0.64" height="0.64" fill="#E02020" x="13.18" y="10.18"></rect><rect width="0.64" height="3.64" fill="#E02020" x="25.18" y="8.18"></rect><rect width="0.64" height="0.64" fill="#E02020" x="25.18" y="12.18"></rect><rect width="0.64" height="1.6400000000000001" fill="#E02020" x="28.18" y="8.18"></rect><rect width="0.64" height="0.64" fill="#E02020" x="28.18" y="10.18"></rect><rect width="1.6400000000000001" height="0.64" fill="#F6B506" x="1.18" y="9.18"></rect><rect width="0.64" height="4.64" fill="#E02020" x="11.18" y="9.18"></rect><rect width="0.64" height="0.64" fill="#E02020" x="11.18" y="14.18"></rect><rect width="0.64" height="1.6400000000000001" fill="#E02020" x="26.18" y="9.18"></rect><rect width="0.64" height="0.64" fill="#E02020" x="26.18" y="11.18"></rect><rect width="2.64" height="0.64" fill="#F6B506" x="5.18" y="10.18"></rect><rect width="1.6400000000000001" height="0.64" fill="#F6B506" x="17.18" y="10.18"></rect><rect width="0.64" height="3.64" fill="#E02020" x="0.18" y="11.18"></rect><rect width="0.64" height="0.64" fill="#E02020" x="0.18" y="15.18"></rect><rect width="1.6400000000000001" height="0.64" fill="#F6B506" x="6.18" y="12.18"></rect><rect width="1.6400000000000001" height="0.64" fill="#F6B506" x="17.18" y="12.18"></rect><rect width="1.6400000000000001" height="0.64" fill="#F6B506" x="27.18" y="12.18"></rect><rect width="1.6400000000000001" height="0.64" fill="#F6B506" x="14.18" y="13.18"></rect><rect width="1.6400000000000001" height="0.64" fill="#F6B506" x="3.18" y="14.18"></rect><rect width="1.6400000000000001" height="0.64" fill="#F6B506" x="13.18" y="14.18"></rect><rect width="1.6400000000000001" height="0.64" fill="#F6B506" x="1.18" y="15.18"></rect><rect width="0.64" height="2.64" fill="#E02020" x="12.18" y="15.18"></rect><rect width="0.64" height="0.64" fill="#E02020" x="12.18" y="18.18"></rect><rect width="1.6400000000000001" height="0.64" fill="#F6B506" x="15.18" y="15.18"></rect><rect width="1.6400000000000001" height="0.64" fill="#F6B506" x="6.18" y="16.18"></rect><rect width="0.64" height="1.6400000000000001" fill="#E02020" x="17.18" y="16.18"></rect><rect width="0.64" height="0.64" fill="#E02020" x="17.18" y="18.18"></rect><rect width="2.64" height="0.64" fill="#F6B506" x="19.18" y="16.18"></rect><rect width="1.6400000000000001" height="0.64" fill="#F6B506" x="23.18" y="16.18"></rect><rect width="1.6400000000000001" height="0.64" fill="#F6B506" x="9.18" y="17.18"></rect><rect width="0.64" height="3.64" fill="#E02020" x="13.18" y="17.18"></rect><rect width="0.64" height="0.64" fill="#E02020" x="13.18" y="21.18"></rect><rect width="1.6400000000000001" height="0.64" fill="#F6B506" x="15.18" y="17.18"></rect><rect width="0.64" height="2.64" fill="#E02020" x="21.18" y="17.18"></rect><rect width="0.64" height="0.64" fill="#E02020" x="21.18" y="20.18"></rect><rect width="1.6400000000000001" height="0.64" fill="#F6B506" x="27.18" y="17.18"></rect><rect width="1.6400000000000001" height="0.64" fill="#F6B506" x="3.18" y="18.18"></rect><rect width="2.64" height="0.64" fill="#F6B506" x="25.18" y="19.18"></rect><rect width="1.6400000000000001" height="0.64" fill="#F6B506" x="6.18" y="20.18"></rect><rect width="0.64" height="2.64" fill="#E02020" x="12.18" y="20.18"></rect><rect width="0.64" height="0.64" fill="#E02020" x="12.18" y="23.18"></rect><rect width="0.64" height="1.6400000000000001" fill="#E02020" x="18.18" y="20.18"></rect><rect width="0.64" height="0.64" fill="#E02020" x="18.18" y="22.18"></rect><rect width="1.6400000000000001" height="0.64" fill="#F6B506" x="19.18" y="20.18"></rect><rect width="3.64" height="0.64" fill="#F6B506" x="22.18" y="20.18"></rect><rect width="1.6400000000000001" height="0.64" fill="#F6B506" x="27.18" y="20.18"></rect><rect width="1.6400000000000001" height="0.64" fill="#F6B506" x="16.18" y="21.18"></rect><rect width="0.64" height="4.64" fill="#E02020" x="20.18" y="21.18"></rect><rect width="0.64" height="0.64" fill="#E02020" x="20.18" y="26.18"></rect><rect width="0.64" height="2.64" fill="#E02020" x="19.18" y="22.18"></rect><rect width="0.64" height="0.64" fill="#E02020" x="19.18" y="25.18"></rect><rect width="1.6400000000000001" height="0.64" fill="#F6B506" x="10.18" y="24.18"></rect><rect width="5.64" height="0.64" fill="#F6B506" x="21.18" y="24.18"></rect><rect width="3.64" height="0.64" fill="#F6B506" x="24.18" y="25.18"></rect><rect width="1.6400000000000001" height="0.64" fill="#F6B506" x="10.18" y="26.18"></rect><rect width="0.64" height="1.6400000000000001" fill="#E02020" x="17.18" y="26.18"></rect><rect width="0.64" height="0.64" fill="#E02020" x="17.18" y="28.18"></rect><rect width="0.64" height="1.6400000000000001" fill="#E02020" x="23.18" y="26.18"></rect><rect width="0.64" height="0.64" fill="#E02020" x="23.18" y="28.18"></rect><rect width="1.6400000000000001" height="0.64" fill="#F6B506" x="18.18" y="27.18"></rect><rect width="1.6400000000000001" height="0.64" fill="#F6B506" x="21.18" y="27.18"></rect><rect width="1.6400000000000001" height="0.64" fill="#F6B506" x="27.18" y="27.18"></rect><rect width="1.6400000000000001" height="0.64" fill="#F6B506" x="14.18" y="28.18"></rect><rect width="1.6400000000000001" height="0.64" fill="#F6B506" x="20.18" y="28.18"></rect></svg>